<svg width="22" height="22" viewBox="0 0 22 22" fill="none" xmlns="http://www.w3.org/2000/svg">
<g clip-path="url(#clip0_31_876)">
<path d="M1.54688 3.36875C1.43565 3.18143 1.37632 2.96785 1.375 2.75C1.375 2.3925 1.5345 2.09825 1.72975 1.87825C1.93274 1.66113 2.17129 1.48024 2.43512 1.34337C2.96725 1.05463 3.6905 0.814 4.52512 0.6215C6.20675 0.23375 8.4975 0 11 0C13.5039 0 15.7932 0.23375 17.4749 0.6215C18.3095 0.814 19.0328 1.05325 19.5649 1.34337C19.8302 1.48913 20.0791 1.66375 20.2703 1.87825C20.4641 2.09825 20.625 2.3925 20.625 2.75C20.625 4.14013 20.1438 4.9665 19.7533 5.64025C19.6982 5.7365 19.6432 5.82862 19.5938 5.91937C19.3878 6.26287 19.2423 6.6391 19.1634 7.03175C19.0961 7.43698 19.091 7.85011 19.1482 8.25688C19.2917 8.23492 19.4383 8.2589 19.5673 8.32538C19.6962 8.39186 19.8009 8.49743 19.8662 8.62698C19.9315 8.75653 19.9541 8.90342 19.9309 9.04662C19.9076 9.18983 19.8397 9.32201 19.7367 9.42425C19.6542 9.50675 19.5539 9.5975 19.4411 9.69238C19.7216 11.2269 19.5621 12.4286 19.0286 13.42C18.4058 14.575 17.336 15.3216 16.2511 15.972C15.9706 16.1411 15.6846 16.3061 15.3986 16.4725C13.4131 17.6165 11.3726 18.7949 10.263 21.5683C10.2247 21.6641 10.1653 21.75 10.0892 21.8198C10.0131 21.8895 9.9223 21.9412 9.82351 21.9711C9.72472 22.0009 9.62047 22.0081 9.51851 21.9922C9.41654 21.9763 9.31947 21.9376 9.2345 21.879L9.23313 21.8776L9.23037 21.8762L9.22487 21.8721L9.21112 21.8611C9.14148 21.8114 9.07405 21.7586 9.009 21.703C8.28583 21.0923 7.72828 20.3092 7.38788 19.426C7.17124 18.8565 7.05629 18.2533 7.04825 17.644C6.93637 17.5183 6.87469 17.3558 6.875 17.1875V17.1628C6.87634 17.1263 6.88002 17.0901 6.886 17.0541C6.91685 16.8552 7.00694 16.6703 7.1445 16.5234C7.26825 15.851 7.5185 15.1291 7.93237 14.3591C7.81255 14.2968 7.71375 14.2005 7.6483 14.0824C7.58286 13.9642 7.55367 13.8294 7.56437 13.6947C7.57508 13.5601 7.62521 13.4316 7.70851 13.3253C7.79181 13.2189 7.90458 13.1395 8.03275 13.0969C8.30851 13.0037 8.59262 12.9374 8.88112 12.8989L9.08738 12.6335C9.47925 12.144 9.64287 11.7549 9.68825 11.4496C9.73115 11.1551 9.67195 10.8547 9.5205 10.5985C9.17812 9.97288 8.39987 9.35687 7.30262 8.63225C7.03725 8.45762 6.75538 8.2775 6.46525 8.0905L6.30163 7.986C5.72522 7.86274 5.15566 7.70945 4.59525 7.52675C4.50062 7.49531 4.41396 7.44366 4.34129 7.37539C4.26862 7.30711 4.21166 7.22384 4.17438 7.13136C4.1371 7.03888 4.12038 6.93939 4.12539 6.8398C4.1304 6.74021 4.15701 6.6429 4.20337 6.55463L3.88712 6.30713C2.91087 5.51375 2.01162 4.565 1.54688 3.36875ZM4.25975 4.81387C4.41513 4.95687 4.58013 5.0985 4.752 5.23738C5.401 5.76125 6.11325 6.23012 6.83513 6.69487C8.95263 7.13075 11.8291 7.38237 14.3014 6.88737C14.3899 6.86959 14.4811 6.86942 14.5698 6.88688C14.6584 6.90435 14.7427 6.93909 14.8179 6.98914C14.8931 7.0392 14.9578 7.10357 15.0081 7.17859C15.0584 7.25361 15.0935 7.33781 15.1112 7.42637C15.129 7.51494 15.1292 7.60615 15.1117 7.69478C15.0943 7.78341 15.0595 7.86774 15.0095 7.94294C14.9594 8.01815 14.8951 8.08276 14.82 8.13308C14.745 8.18341 14.6608 8.21846 14.5722 8.23625C12.9002 8.57175 11.0839 8.59375 9.40363 8.45212C9.95225 8.90037 10.4266 9.38988 10.7277 9.9385C11.0069 10.4514 11.143 11.0248 11.0481 11.6531C10.9794 12.1069 10.7979 12.5565 10.5119 13.0075C10.615 13.0309 10.7154 13.0556 10.8144 13.0804L10.8226 13.0831C11.484 13.2481 12.0092 13.376 12.8439 13.0969C13.0171 13.0391 13.2062 13.0525 13.3695 13.1341C13.5329 13.2157 13.6571 13.3588 13.7149 13.5321C13.7727 13.7053 13.7594 13.8944 13.6777 14.0577C13.5961 14.2211 13.453 14.3453 13.2797 14.4031C12.0588 14.8088 11.2104 14.597 10.4981 14.4196L10.4899 14.4169C10.2 14.3357 9.90377 14.2791 9.60437 14.2478C9.09563 15.004 8.78212 15.6915 8.60612 16.3061C8.80137 16.368 9.01312 16.4574 9.2455 16.5729C9.32693 16.6129 9.39963 16.6686 9.45942 16.7369C9.5192 16.8051 9.56488 16.8845 9.59383 16.9705C9.62278 17.0565 9.63442 17.1474 9.62808 17.2379C9.62174 17.3284 9.59755 17.4168 9.5569 17.4979C9.51626 17.579 9.45995 17.6513 9.39124 17.7105C9.32253 17.7698 9.24277 17.8149 9.15656 17.8431C9.07034 17.8714 8.97939 17.8824 8.88893 17.8753C8.79847 17.8683 8.7103 17.8434 8.6295 17.8021C8.56252 17.7683 8.49467 17.7362 8.426 17.7059C8.4425 18.1803 8.5415 18.59 8.6735 18.9365C8.866 19.4439 9.14375 19.8522 9.3995 20.1548C10.7635 17.5381 12.9511 16.2855 14.7414 15.2597C15.0205 15.1002 15.29 14.9463 15.5444 14.7923C16.61 14.1543 17.3869 13.5685 17.8172 12.7683C18.1087 12.2279 18.271 11.5308 18.1748 10.5449C16.8183 11.2891 15.2972 11.6819 13.75 11.6875C13.5677 11.6875 13.3928 11.6151 13.2639 11.4861C13.1349 11.3572 13.0625 11.1823 13.0625 11C13.0625 10.8177 13.1349 10.6428 13.2639 10.5139C13.3928 10.3849 13.5677 10.3125 13.75 10.3125C15.2172 10.3048 16.6533 9.88969 17.8984 9.1135C17.8948 9.09985 17.8915 9.08609 17.8888 9.07225C17.7031 8.14688 17.6963 7.41263 17.8118 6.78288C17.9272 6.15037 18.1596 5.66913 18.3906 5.2525L18.5707 4.93625C18.6601 4.78225 18.744 4.63375 18.821 4.48663C18.4222 4.63375 17.9685 4.76438 17.4735 4.8785C15.7946 5.26625 13.5052 5.5 11 5.5C8.49613 5.5 6.20675 5.26625 4.52512 4.8785C4.43575 4.85788 4.34637 4.83725 4.25975 4.81387ZM19.2005 2.75C19.1104 2.67241 19.0117 2.6055 18.9062 2.55063C18.5322 2.34713 17.9479 2.14225 17.1655 1.96213C15.6118 1.60325 13.4324 1.375 11 1.375C8.56763 1.375 6.38825 1.60325 4.8345 1.96213C4.05212 2.14088 3.46775 2.34713 3.09375 2.55063C2.9883 2.6055 2.88956 2.67241 2.7995 2.75C2.8545 2.80225 2.94938 2.86963 3.09375 2.94937C3.46775 3.15287 4.05212 3.35775 4.8345 3.53787C6.38825 3.89675 8.56763 4.125 11 4.125C13.4324 4.125 15.6118 3.89675 17.1655 3.53787C17.9479 3.35912 18.5322 3.15287 18.9062 2.94937C19.0117 2.8945 19.1104 2.82759 19.2005 2.75Z" fill="white"/>
</g>
<defs>
<clipPath id="clip0_31_876">
<rect width="22" height="22" fill="white"/>
</clipPath>
</defs>
</svg>
