<svg width="57" height="57" viewBox="0 0 57 57" fill="none" xmlns="http://www.w3.org/2000/svg">
<path d="M31.35 19.95C38.3752 19.95 42.3595 24.4359 42.9381 29.8509H43.1148C47.6349 29.8509 51.3 33.3764 51.3 37.7255C51.3 42.0746 47.6349 45.6 43.1148 45.6H19.5852C15.0651 45.6 11.4 42.0746 11.4 37.7255C11.4 33.3764 15.0651 29.8509 19.5852 29.8509H19.7619C20.3461 24.3989 24.3247 19.95 31.35 19.95ZM23.9172 11.4C28.0668 11.4 31.6863 13.7598 33.4732 17.2283C32.7688 17.1419 32.0597 17.0991 31.35 17.1C24.5385 17.1 19.5738 20.825 17.8011 26.4651L17.6244 27.075L17.4933 27.608L17.023 27.6935C15.3019 28.044 13.6944 28.8151 12.3437 29.938C10.9931 31.0609 9.94138 32.5006 9.28243 34.1288C7.92471 33.3016 6.86621 32.0629 6.26078 30.5928C5.65536 29.1228 5.53457 27.4979 5.91598 25.9545C6.29739 24.411 7.16111 23.0295 8.38159 22.0106C9.60207 20.9918 11.1157 20.3887 12.7024 20.2892L13.3351 20.2749C13.7746 17.7878 15.0762 15.535 17.0113 13.912C18.9465 12.289 21.3915 11.3997 23.9172 11.4Z" fill="#F9E000"/>
</svg>
