<svg width="30" height="30" viewBox="0 0 30 30" fill="none" xmlns="http://www.w3.org/2000/svg">
<path d="M16.5 24.999C16.7654 24.999 17.0198 25.1044 17.2075 25.292C17.3951 25.4797 17.5005 25.7341 17.5005 25.9995C17.5005 26.2648 17.3951 26.5193 17.2075 26.707C17.0198 26.8946 16.7654 27 16.5 27C16.2347 27 15.9802 26.8946 15.7925 26.707C15.6049 26.5193 15.4995 26.2648 15.4995 25.9995C15.4995 25.7341 15.6049 25.4797 15.7925 25.292C15.9802 25.1044 16.2347 24.999 16.5 24.999ZM13.0005 24C13.1351 23.9948 13.2693 24.0168 13.3951 24.0647C13.521 24.1126 13.6358 24.1854 13.7329 24.2787C13.8299 24.3721 13.9071 24.484 13.9598 24.6079C14.0126 24.7318 14.0397 24.8651 14.0397 24.9997C14.0397 25.1344 14.0126 25.2677 13.9598 25.3916C13.9071 25.5154 13.8299 25.6274 13.7329 25.7208C13.6358 25.8141 13.521 25.8869 13.3951 25.9348C13.2693 25.9827 13.1351 26.0047 13.0005 25.9995C12.7421 25.9895 12.4975 25.8798 12.3182 25.6934C12.1389 25.507 12.0387 25.2584 12.0387 24.9997C12.0387 24.7411 12.1389 24.4925 12.3182 24.3061C12.4975 24.1197 12.7421 24.01 13.0005 24V24ZM19.9995 24C20.1341 23.9948 20.2683 24.0168 20.3941 24.0647C20.52 24.1126 20.6348 24.1854 20.7319 24.2787C20.8289 24.3721 20.9061 24.484 20.9588 24.6079C21.0116 24.7318 21.0387 24.8651 21.0387 24.9997C21.0387 25.1344 21.0116 25.2677 20.9588 25.3916C20.9061 25.5154 20.8289 25.6274 20.7319 25.7208C20.6348 25.8141 20.52 25.8869 20.3941 25.9348C20.2683 25.9827 20.1341 26.0047 19.9995 25.9995C19.7411 25.9895 19.4965 25.8798 19.3172 25.6934C19.1379 25.507 19.0377 25.2584 19.0377 24.9997C19.0377 24.7411 19.1379 24.4925 19.3172 24.3061C19.4965 24.1197 19.7411 24.01 19.9995 24V24ZM16.5 9C20.1975 9 22.2945 11.3595 22.599 14.211H22.692C25.071 14.211 27 16.0665 27 18.3555C27 20.6445 25.071 22.5 22.692 22.5H10.308C7.929 22.5 6 20.6445 6 18.3555C6 16.0665 7.929 14.211 10.308 14.211H10.401C10.7085 11.34 12.8025 9 16.5 9ZM5.7045 13.05C5.76229 13.2161 5.75986 13.3973 5.69761 13.5618C5.63537 13.7263 5.51729 13.8637 5.364 13.95L5.2395 14.004L4.038 14.418C3.86069 14.48 3.66655 14.4733 3.49398 14.3991C3.32141 14.3249 3.18297 14.1886 3.10605 14.0172C3.02912 13.8458 3.01931 13.6518 3.07856 13.4735C3.13781 13.2953 3.2618 13.1457 3.426 13.0545L3.549 13.0005L4.752 12.5865C4.93998 12.522 5.14587 12.5347 5.32447 12.6219C5.50306 12.7091 5.63974 12.8636 5.7045 13.0515V13.05ZM13.38 6.75C13.878 6.993 14.3175 7.3095 14.6895 7.68C12.0465 8.226 10.1445 9.9795 9.375 12.414L9.2775 12.75L9.2085 13.0305L8.961 13.0755C8.29557 13.2125 7.66037 13.4686 7.086 13.8315C6.50622 12.9284 6.23763 11.8604 6.32119 10.7905C6.40475 9.72052 6.83587 8.70723 7.54883 7.90507C8.26179 7.1029 9.21749 6.55585 10.2703 6.34732C11.323 6.13878 12.4151 6.28019 13.38 6.75V6.75ZM4.3755 7.005L4.5 7.053L5.643 7.6095C5.8115 7.69141 5.94324 7.83342 6.0123 8.00759C6.08136 8.18175 6.08272 8.37545 6.01614 8.55058C5.94955 8.7257 5.81983 8.86956 5.6525 8.95384C5.48517 9.03813 5.29236 9.05673 5.112 9.006L4.986 8.958L3.843 8.4015C3.6745 8.31958 3.54276 8.17757 3.47371 8.00341C3.40465 7.82924 3.40328 7.63554 3.46987 7.46041C3.53646 7.28529 3.66618 7.14143 3.83351 7.05715C4.00083 6.97286 4.19365 6.95426 4.374 7.005H4.3755ZM14.985 3.4425C15.1429 3.51955 15.2688 3.64961 15.3406 3.80999C15.4124 3.97036 15.4257 4.15086 15.378 4.32L15.33 4.446L14.7735 5.589C14.6916 5.7575 14.5496 5.88924 14.3754 5.95829C14.2013 6.02735 14.0075 6.02872 13.8324 5.96213C13.6573 5.89554 13.5134 5.76582 13.4292 5.59849C13.3449 5.43117 13.3263 5.23835 13.377 5.058L13.425 4.9305L13.983 3.7875C14.0703 3.609 14.2248 3.47242 14.4126 3.40773C14.6005 3.34305 14.8064 3.35555 14.985 3.4425V3.4425ZM9.3 3.3945L9.3555 3.5175L9.7695 4.7205C9.83036 4.89758 9.82278 5.09102 9.74824 5.2628C9.67371 5.43457 9.53761 5.57225 9.36671 5.64877C9.19581 5.72529 9.00247 5.73511 8.82469 5.67631C8.64692 5.61751 8.49757 5.49433 8.406 5.331L8.352 5.208L7.938 4.0065C7.8781 3.82983 7.88618 3.63718 7.96068 3.46616C8.03517 3.29513 8.17073 3.158 8.34088 3.08155C8.51104 3.00509 8.70358 2.99479 8.88093 3.05265C9.05827 3.11052 9.20769 3.2324 9.3 3.3945V3.3945Z" fill="#DDDDDD"/>
</svg>
