<svg width="25" height="25" viewBox="0 0 25 25" fill="none" xmlns="http://www.w3.org/2000/svg">
<path d="M15.8828 16.7813L17.6328 15.0313C17.8685 14.7985 18.1668 14.6391 18.4913 14.5726C18.8158 14.506 19.1527 14.5351 19.461 14.6563L21.5938 15.5078C21.9053 15.6343 22.1725 15.8501 22.3616 16.1282C22.5507 16.4063 22.6532 16.7341 22.6563 17.0703V20.9766C22.6545 21.2053 22.6064 21.4313 22.5149 21.641C22.4235 21.8506 22.2905 22.0396 22.1241 22.1965C21.9577 22.3535 21.7612 22.4751 21.5466 22.5541C21.3319 22.6331 21.1035 22.6679 20.875 22.6563C5.92972 21.7266 2.91409 9.07031 2.34378 4.22656C2.3173 3.9887 2.34149 3.74793 2.41475 3.52009C2.48801 3.29224 2.60869 3.0825 2.76883 2.90464C2.92898 2.72678 3.12496 2.58485 3.3439 2.48818C3.56284 2.3915 3.79976 2.34228 4.03909 2.34375H7.81253C8.14925 2.34475 8.47798 2.44646 8.75643 2.63581C9.03488 2.82515 9.25032 3.09347 9.37503 3.40625L10.2266 5.53906C10.3518 5.84615 10.3837 6.18332 10.3184 6.50845C10.2531 6.83358 10.0935 7.13226 9.8594 7.36719L8.1094 9.11719C8.1094 9.11719 9.11722 15.9375 15.8828 16.7813Z" fill="#DDDDDD"/>
</svg>
