<svg width="25" height="25" viewBox="0 0 25 25" fill="none" xmlns="http://www.w3.org/2000/svg">
<path d="M23.75 18.125V6.875C23.75 5.8375 22.9125 5 21.875 5H4.36249C3.32499 5 2.48749 5.8375 2.48749 6.875V18.125C2.48749 19.1625 3.32499 20 4.36249 20H21.875C22.9125 20 23.75 19.1625 23.75 18.125ZM22.1125 6.7375C22.525 7.15 22.3 7.575 22.075 7.7875L17 12.4375L21.875 17.5125C22.025 17.6875 22.125 17.9625 21.95 18.15C21.7875 18.35 21.4125 18.3375 21.25 18.2125L15.7875 13.55L13.1125 15.9875L10.45 13.55L4.98749 18.2125C4.82499 18.3375 4.44999 18.35 4.28749 18.15C4.11249 17.9625 4.21249 17.6875 4.36249 17.5125L9.23749 12.4375L4.16249 7.7875C3.93749 7.575 3.71249 7.15 4.12499 6.7375C4.53749 6.325 4.96249 6.525 5.31249 6.825L13.1125 13.125L20.925 6.825C21.275 6.525 21.7 6.325 22.1125 6.7375Z" fill="#DDDDDD"/>
</svg>
