<svg width="63" height="57" viewBox="0 0 63 57" fill="none" xmlns="http://www.w3.org/2000/svg">
<path d="M42.9545 46.7653C46.1015 49.625 50.1816 51.2039 54.4091 51.198H60.1364V57H54.4091C50.3875 57.0066 46.4357 55.9357 42.9545 53.8959C39.4735 55.9361 35.5216 57.007 31.5 57C27.4784 57.0066 23.5266 55.9357 20.0455 53.8959C16.5644 55.9361 12.6125 57.007 8.59091 57H2.86364V51.198H8.59091C12.9923 51.198 17.01 49.5213 20.0455 46.7653C23.1924 49.625 27.2725 51.2039 31.5 51.198C35.9014 51.198 39.9191 49.5213 42.9545 46.7653ZM33.1409 0.523921L33.4272 0.755999L63 27.9903H54.4091V45.3961C52.1859 45.3979 49.993 44.8744 48.0046 43.8672C46.0162 42.8601 44.287 41.3969 42.9545 39.5942C41.6224 41.3973 39.8933 42.8606 37.9048 43.8678C35.9163 44.8751 33.7232 45.3983 31.5 45.3961C29.2769 45.3979 27.0839 44.8744 25.0955 43.8672C23.1071 42.8601 21.3779 41.3969 20.0455 39.5942C18.7133 41.3973 16.9842 42.8606 14.9957 43.8678C13.0072 44.8751 10.8141 45.3983 8.59091 45.3961L8.58805 27.9903H0L29.5728 0.755999C30.0082 0.354352 30.5553 0.0984601 31.1394 0.0231878C31.7236 -0.0520845 32.3165 0.056923 32.8373 0.335359L33.1409 0.523921Z" fill="white"/>
</svg>
