<svg width="57" height="57" viewBox="0 0 57 57" fill="none" xmlns="http://www.w3.org/2000/svg">
<path d="M18.3944 46.3125H38.5843C39.0356 46.3126 39.47 46.4841 39.7998 46.7922C40.1295 47.1003 40.3301 47.5221 40.3608 47.9723C40.3916 48.4226 40.2503 48.8677 39.9655 49.2178C39.6807 49.5679 39.2736 49.7969 38.8265 49.8584L38.5843 49.875H18.3944C17.9431 49.8749 17.5086 49.7034 17.1789 49.3953C16.8491 49.0872 16.6486 48.6654 16.6178 48.2152C16.5871 47.7649 16.7283 47.3198 17.0132 46.9697C17.298 46.6196 17.705 46.3906 18.1521 46.3291L18.3944 46.3125H38.5843H18.3944ZM11.2812 39.235H45.7188C46.1672 39.2392 46.5976 39.4124 46.924 39.7201C47.2503 40.0278 47.4486 40.4472 47.4792 40.8947C47.5098 41.3421 47.3704 41.7847 47.089 42.1339C46.8076 42.4831 46.4047 42.7133 45.961 42.7785L45.7188 42.7951H11.2812C10.8299 42.795 10.3955 42.6235 10.0657 42.3154C9.73597 42.0073 9.53545 41.5855 9.50469 41.1353C9.47393 40.685 9.61522 40.2399 9.90003 39.8898C10.1848 39.5397 10.5919 39.3108 11.039 39.2492L11.2812 39.2326V39.235ZM28.5 7.1345C36.024 7.1345 40.2942 12.1149 40.9141 18.1307H41.1041C42.2547 18.1289 43.3943 18.3538 44.4579 18.7925C45.5215 19.2313 46.4881 19.8754 47.3027 20.6879C48.1172 21.5005 48.7637 22.4656 49.205 23.5281C49.6464 24.5906 49.8741 25.7297 49.875 26.8802C49.8734 28.0304 49.6453 29.1689 49.2037 30.2309C48.762 31.2929 48.1155 32.2574 47.301 33.0695C46.4865 33.8815 45.52 34.5252 44.4568 34.9637C43.3935 35.4021 42.2543 35.6269 41.1041 35.625H15.8959C14.7457 35.6269 13.6065 35.4021 12.5432 34.9637C11.48 34.5252 10.5135 33.8815 9.69899 33.0695C8.88451 32.2574 8.23798 31.2929 7.79633 30.2309C7.35468 29.1689 7.12656 28.0304 7.125 26.8802C7.12625 25.7301 7.35406 24.5915 7.79542 23.5294C8.23678 22.4673 8.88305 21.5026 9.69731 20.6903C10.5116 19.878 11.4779 19.2341 12.541 18.7954C13.6042 18.3566 14.7434 18.1316 15.8935 18.1331H16.0835C16.7081 12.0769 20.9712 7.13687 28.4976 7.13687L28.5 7.1345Z" fill="#F9E000"/>
</svg>
