<svg width="14" height="19" viewBox="0 0 14 19" fill="none" xmlns="http://www.w3.org/2000/svg">
<path d="M7 19C5.73694 17.9226 4.56619 16.7415 3.5 15.469C1.9 13.558 8.78894e-07 10.712 8.78894e-07 8C-0.00069302 6.61496 0.409509 5.26085 1.17869 4.10903C1.94788 2.95721 3.04147 2.05946 4.32107 1.5294C5.60067 0.999337 7.00875 0.860791 8.36712 1.13129C9.72548 1.40179 10.9731 2.06918 11.952 3.049C12.6038 3.69786 13.1203 4.46954 13.4719 5.31937C13.8234 6.16921 14.0029 7.08033 14 8C14 10.712 12.1 13.558 10.5 15.469C9.4338 16.7415 8.26306 17.9226 7 19ZM7 3C5.67441 3.00159 4.40356 3.52888 3.46622 4.46622C2.52888 5.40356 2.00159 6.67441 2 8C2 9.166 2.527 11.185 5.035 14.186C5.65313 14.9241 6.30901 15.6297 7 16.3C7.69102 15.6304 8.34721 14.9258 8.966 14.189C11.473 11.184 12 9.165 12 8C11.9984 6.67441 11.4711 5.40356 10.5338 4.46622C9.59644 3.52888 8.3256 3.00159 7 3ZM7 11C6.20435 11 5.44129 10.6839 4.87868 10.1213C4.31607 9.55871 4 8.79565 4 8C4 7.20435 4.31607 6.44129 4.87868 5.87868C5.44129 5.31607 6.20435 5 7 5C7.79565 5 8.55871 5.31607 9.12132 5.87868C9.68393 6.44129 10 7.20435 10 8C10 8.79565 9.68393 9.55871 9.12132 10.1213C8.55871 10.6839 7.79565 11 7 11Z" fill="#DDDDDD"/>
</svg>
