<svg width="12" height="12" viewBox="0 0 12 12" fill="none" xmlns="http://www.w3.org/2000/svg">
<path d="M6 0C5.21207 -1.17411e-08 4.43185 0.155195 3.7039 0.456723C2.97595 0.758251 2.31451 1.20021 1.75736 1.75736C1.20021 2.31451 0.758251 2.97595 0.456723 3.7039C0.155195 4.43185 0 5.21207 0 6C0 6.78793 0.155195 7.56815 0.456723 8.2961C0.758251 9.02405 1.20021 9.68549 1.75736 10.2426C2.31451 10.7998 2.97595 11.2417 3.7039 11.5433C4.43185 11.8448 5.21207 12 6 12C7.5913 12 9.11742 11.3679 10.2426 10.2426C11.3679 9.11742 12 7.5913 12 6C12 4.4087 11.3679 2.88258 10.2426 1.75736C9.11742 0.632141 7.5913 2.37122e-08 6 0ZM6 1C7.32608 1 8.59785 1.52678 9.53553 2.46447C10.4732 3.40215 11 4.67392 11 6C11 7.32608 10.4732 8.59785 9.53553 9.53553C8.59785 10.4732 7.32608 11 6 11C4.67392 11 3.40215 10.4732 2.46447 9.53553C1.52678 8.59785 1 7.32608 1 6C1 4.67392 1.52678 3.40215 2.46447 2.46447C3.40215 1.52678 4.67392 1 6 1ZM5 6H3.5C3.38297 5.99996 3.26964 6.04097 3.17974 6.11589C3.08984 6.19081 3.02906 6.29489 3.008 6.41L3 6.5V8.001C2.99977 8.12595 3.04633 8.24645 3.13051 8.33878C3.21469 8.43112 3.33039 8.48859 3.45482 8.49988C3.57926 8.51116 3.70341 8.47546 3.80283 8.39978C3.90225 8.3241 3.96974 8.21395 3.992 8.091L4 8.001V7.764C4.24358 8.04046 4.54185 8.26341 4.87596 8.41877C5.21007 8.57412 5.57277 8.6585 5.94114 8.66658C6.30952 8.67467 6.67556 8.60627 7.01617 8.46572C7.35677 8.32517 7.66453 8.11552 7.92 7.85C7.96557 7.80272 8.00138 7.74694 8.02539 7.68582C8.0494 7.6247 8.06113 7.55946 8.05992 7.49381C8.05872 7.42816 8.04459 7.36339 8.01835 7.30319C7.99211 7.243 7.95428 7.18857 7.907 7.143C7.85972 7.09743 7.80394 7.06162 7.74282 7.03761C7.6817 7.0136 7.61646 7.00187 7.55081 7.00308C7.48516 7.00428 7.42039 7.01841 7.36019 7.04465C7.3 7.07089 7.24557 7.10872 7.2 7.156C7.0325 7.32989 6.82924 7.46532 6.60425 7.55292C6.37927 7.64052 6.13794 7.67821 5.89696 7.66337C5.65598 7.64854 5.4211 7.58154 5.20856 7.467C4.99602 7.35246 4.8109 7.19312 4.666 7H5C5.12495 7.00023 5.24545 6.95367 5.33778 6.86949C5.43012 6.78531 5.48759 6.66961 5.49888 6.54518C5.51016 6.42074 5.47446 6.29659 5.39878 6.19717C5.3231 6.09775 5.21295 6.03026 5.09 6.008L5 6ZM6 3.334C5.63981 3.33357 5.28329 3.40629 4.95205 3.54776C4.62081 3.68923 4.32175 3.8965 4.073 4.157C3.98137 4.25288 3.93158 4.38123 3.93458 4.51381C3.93606 4.57946 3.95046 4.64418 3.97696 4.70427C4.00346 4.76435 4.04153 4.81863 4.089 4.864C4.13647 4.90937 4.19242 4.94495 4.25364 4.9687C4.31486 4.99245 4.38016 5.00391 4.44581 5.00242C4.5784 4.99942 4.70437 4.94388 4.796 4.848C4.96324 4.67319 5.16653 4.53688 5.39174 4.44853C5.61695 4.36017 5.8587 4.3219 6.10019 4.33636C6.34169 4.35083 6.57714 4.41768 6.7902 4.53228C7.00326 4.64688 7.18882 4.80648 7.334 5H7.004C6.87905 4.99977 6.75855 5.04633 6.66622 5.13051C6.57388 5.21469 6.51641 5.33039 6.50513 5.45482C6.49384 5.57926 6.52954 5.70341 6.60522 5.80283C6.6809 5.90225 6.79105 5.96974 6.914 5.992L7.004 6H8.5C8.61703 6.00004 8.73036 5.95903 8.82026 5.88411C8.91016 5.80919 8.97093 5.70511 8.992 5.59L9 5.5V4.003C9.00023 3.87805 8.95367 3.75755 8.86949 3.66522C8.78531 3.57288 8.66961 3.51541 8.54518 3.50412C8.42074 3.49284 8.29659 3.52854 8.19717 3.60422C8.09775 3.6799 8.03026 3.79005 8.008 3.913L8 4.003V4.237C7.74984 3.95313 7.4421 3.72579 7.09726 3.57009C6.75241 3.4144 6.37836 3.33391 6 3.334Z" fill="#DDDDDD"/>
</svg>
